Coordinates
version=1
nRows=14
nColumns=63
inDegrees=yes

Units are S.I. units (second, meters, Newtons, ...)
If the header above contains a line with 'inDegrees', this indicates whether rotational values are in degrees (yes) or radians (no).

endheader
time	pelvis_tilt	pelvis_list	pelvis_rotation	pelvis_tx	pelvis_ty	pelvis_tz	hip_flexion_r	hip_adduction_r	hip_rotation_r	knee_angle_r	knee_angle_r_beta	ankle_angle_r	subtalar_angle_r	mtp_angle_r	hip_flexion_l	hip_adduction_l	hip_rotation_l	knee_angle_l	knee_angle_l_beta	ankle_angle_l	subtalar_angle_l	mtp_angle_l	L5_S1_Flex_Ext	L5_S1_Lat_Bending	L5_S1_axial_rotation	L4_L5_Flex_Ext	L4_L5_Lat_Bending	L4_L5_axial_rotation	L3_L4_Flex_Ext	L3_L4_Lat_Bending	L3_L4_axial_rotation	L2_L3_Flex_Ext	L2_L3_Lat_Bending	L2_L3_axial_rotation	L1_L2_Flex_Ext	L1_L2_Lat_Bending	L1_L2_axial_rotation	L1_T12_Flex_Ext	L1_T12_Lat_Bending	L1_T12_axial_rotation	Abs_r3	Abs_r2	Abs_r1	Abs_t1	Abs_t2	neck_flexion	neck_bending	neck_rotation	arm_flex_r	arm_add_r	arm_rot_r	elbow_flex_r	pro_sup_r	wrist_flex_r	wrist_dev_r	arm_flex_l	arm_add_l	arm_rot_l	elbow_flex_l	pro_sup_l	wrist_flex_l	wrist_dev_l
5.433962	-1.343669	-2.096284	102.119838	0.176564	0.497632	0.949016	-3.658358	1.668547	-18.817178	8.228557	0.143615	45.562311	16.116817	0.000000	-0.916813	1.286127	-5.636523	11.606080	0.202564	46.939643	14.071870	0.000000	-0.009822	-0.004265	-1.335627	-0.018241	-0.005673	-1.419104	-0.016137	-0.010371	-1.419104	-0.011226	-0.010371	-1.168674	-0.009121	-0.008698	-1.085197	-0.005612	-0.006607	-1.001720	-0.070159	-0.048250	-7.428357	0.000000	0.000000	17.107170	0.149856	-5.482728	-11.194413	-21.829379	82.914399	60.405406	4.919174	8.847247	-10.712891	-32.761419	-11.351159	18.616732	64.323367	32.315880	58.058590	-23.553483
5.452830	-1.388422	-2.087478	101.991546	0.176710	0.497723	0.949236	-3.534223	1.564661	-18.770185	8.469481	0.147820	45.647301	16.155419	0.000000	-0.922148	1.340944	-5.651143	11.589485	0.202275	46.961785	13.999595	0.000000	-0.006121	-0.010296	-1.280547	-0.011368	-0.013694	-1.360581	-0.010057	-0.025033	-1.360581	-0.006996	-0.025033	-1.120479	-0.005684	-0.020995	-1.040445	-0.003498	-0.015948	-0.960410	-0.043724	-0.116469	-7.122020	0.000000	0.000000	16.871828	0.012444	-5.912418	-11.136426	-21.763606	83.120348	60.214785	4.994891	9.543879	-10.979961	-32.494758	-11.471431	19.942598	63.843145	29.437942	59.815308	-23.630922
5.471698	-1.441554	-2.083252	101.825396	0.176905	0.497783	0.949482	-3.402756	1.447147	-18.692556	8.709982	0.152018	45.734671	16.187997	0.000000	-0.928415	1.411156	-5.665267	11.569416	0.201924	46.970647	13.887196	0.000000	-0.002256	-0.017218	-1.219775	-0.004189	-0.022899	-1.296011	-0.003706	-0.041863	-1.296011	-0.002578	-0.041863	-1.067303	-0.002095	-0.035110	-0.991067	-0.001289	-0.026670	-0.914831	-0.016111	-0.194768	-6.784023	0.000000	0.000000	16.649120	-0.132384	-6.350237	-10.996680	-21.743591	83.413935	60.132456	4.997769	10.034155	-11.084707	-32.218576	-11.579585	21.385482	63.341324	26.099662	61.785603	-23.718444
5.490566	-1.499138	-2.088009	101.621750	0.177142	0.497799	0.949741	-3.264909	1.321556	-18.581443	8.939370	0.156021	45.819891	16.213555	0.000000	-0.932045	1.489584	-5.718396	11.548592	0.201561	46.972747	13.781471	0.000000	0.002031	-0.024409	-1.154821	0.003771	-0.032463	-1.226998	0.003336	-0.059347	-1.226998	0.002321	-0.059347	-1.010469	0.001886	-0.049774	-0.938292	0.001160	-0.037809	-0.866116	0.014504	-0.276115	-6.422770	0.000000	0.000000	16.456947	-0.282119	-6.768953	-10.853486	-21.773612	83.578828	60.201790	4.935237	10.106394	-10.760438	-31.949721	-11.675756	22.880021	62.862796	22.429988	63.833960	-23.811727
5.509434	-1.555910	-2.102972	101.390970	0.177408	0.497762	0.950006	-3.125573	1.196394	-18.434812	9.145414	0.159618	45.896502	16.218379	0.000000	-0.930840	1.576073	-5.756199	11.530408	0.201244	46.959731	13.625931	0.000000	0.006645	-0.031253	-1.092248	0.012340	-0.041567	-1.160514	0.010917	-0.075989	-1.160514	0.007594	-0.075989	-0.955717	0.006170	-0.063732	-0.887452	0.003797	-0.048411	-0.819186	0.047463	-0.353544	-6.074758	0.000000	0.000000	16.307585	-0.410930	-7.124933	-10.695732	-21.858731	83.624056	60.422430	4.811374	9.738465	-9.978271	-31.728605	-11.741932	24.272022	62.464571	18.764821	65.732709	-23.908817
5.528302	-1.608204	-2.124074	101.169078	0.177649	0.497672	0.950271	-2.997866	1.077258	-18.323798	9.317000	0.162612	45.969882	16.248512	0.000000	-0.925091	1.667307	-5.721425	11.520427	0.201069	46.927847	13.393396	0.000000	0.010471	-0.036931	-1.038372	0.019445	-0.049118	-1.103270	0.017202	-0.089793	-1.103270	0.011967	-0.089793	-0.908575	0.009723	-0.075309	-0.843677	0.005983	-0.057206	-0.778779	0.074791	-0.417768	-5.775111	0.000000	0.000000	16.219492	-0.522866	-7.388557	-10.583845	-21.976346	83.443729	60.792193	4.642668	8.823565	-8.766251	-31.574976	-11.783876	25.430848	62.213312	15.495693	67.235225	-23.993877
5.547170	-1.650137	-2.155709	100.917552	0.177918	0.497521	0.950529	-2.870411	0.971992	-18.177472	9.456135	0.165041	46.033284	16.269403	0.000000	-0.911450	1.746524	-5.764685	11.521872	0.201095	46.897843	13.212017	0.000000	0.013572	-0.040668	-0.985049	0.025205	-0.054089	-1.046615	0.022298	-0.098881	-1.046615	0.015512	-0.098881	-0.861918	0.012603	-0.082931	-0.800353	0.007755	-0.062995	-0.738787	0.096945	-0.460049	-5.478548	0.000000	0.000000	16.212686	-0.608099	-7.546642	-10.559611	-22.117288	82.969527	61.308943	4.428420	7.319193	-7.160464	-31.505470	-11.801347	26.187243	62.171140	13.269094	68.064738	-24.056296
5.566038	-1.681383	-2.198745	100.663439	0.178174	0.497317	0.950776	-2.750265	0.886277	-17.979978	9.549571	0.166671	46.077237	16.239738	0.000000	-0.889945	1.819153	-5.810118	11.525937	0.201166	46.855679	13.021144	0.000000	0.015768	-0.041757	-0.932911	0.029283	-0.055537	-0.991218	0.025905	-0.101529	-0.991218	0.018021	-0.101529	-0.816297	0.014642	-0.085152	-0.757990	0.009010	-0.064682	-0.699683	0.112630	-0.472369	-5.188570	0.000000	0.000000	16.301568	-0.675580	-7.561878	-10.704293	-22.250634	82.030554	61.958774	4.205063	5.099906	-5.073010	-31.469620	-11.862750	26.699342	62.334905	11.805549	68.324309	-24.052809
5.584906	-1.705734	-2.250822	100.414173	0.178430	0.497072	0.951019	-2.633491	0.811352	-17.810911	9.614509	0.167805	46.120047	16.247995	0.000000	-0.857187	1.883411	-5.884828	11.540257	0.201415	46.807797	12.850892	0.000000	0.016123	-0.041735	-0.890073	0.029942	-0.055507	-0.945702	0.026488	-0.101474	-0.945702	0.018427	-0.101474	-0.778814	0.014972	-0.085106	-0.723184	0.009213	-0.064647	-0.667554	0.115163	-0.472114	-4.950317	0.000000	0.000000	16.480208	-0.694523	-7.442821	-10.941839	-22.366398	80.785511	62.688553	3.965219	2.334608	-2.613872	-31.534639	-11.854545	26.648736	62.688130	11.734556	67.971395	-24.022902
5.603774	-1.722748	-2.312545	100.170555	0.178683	0.496803	0.951250	-2.519698	0.749656	-17.641419	9.650096	0.168426	46.157600	16.272519	0.000000	-0.814673	1.941779	-5.965354	11.558038	0.201726	46.750447	12.671748	0.000000	0.015038	-0.040458	-0.857189	0.027927	-0.053810	-0.910763	0.024706	-0.098370	-0.910763	0.017187	-0.098370	-0.750040	0.013964	-0.082503	-0.696466	0.008593	-0.062670	-0.642892	0.107416	-0.457673	-4.767429	0.000000	0.000000	16.736616	-0.664582	-7.180506	-11.222802	-22.488858	79.364594	63.475889	3.723093	-0.744513	0.103016	-31.669780	-11.834728	26.377670	63.182205	12.045149	67.150637	-24.001449
5.622642	-1.726287	-2.388795	99.942566	0.178903	0.496510	0.951453	-2.405115	0.707811	-17.466990	9.654543	0.168504	46.182376	16.304567	0.000000	-0.755091	1.994313	-5.997743	11.578113	0.202076	46.682084	12.422347	0.000000	0.014090	-0.037134	-0.834240	0.026166	-0.049388	-0.886380	0.023148	-0.090288	-0.886380	0.016103	-0.090288	-0.729960	0.013084	-0.075724	-0.677820	0.008051	-0.057521	-0.625680	0.100642	-0.420068	-4.639794	0.000000	0.000000	17.047319	-0.610812	-6.808257	-11.609484	-22.616237	77.643056	64.351503	3.455712	-4.304674	3.186512	-31.835835	-11.792146	26.030138	63.698267	12.329332	66.239272	-23.987391
5.641509	-1.714472	-2.473387	99.734194	0.179100	0.496219	0.951613	-2.296683	0.690870	-17.271949	9.628093	0.168042	46.192892	16.331292	0.000000	-0.684608	2.031076	-6.032547	11.598818	0.202438	46.618144	12.165227	0.000000	0.013636	-0.032309	-0.822445	0.025323	-0.042972	-0.873848	0.022403	-0.078557	-0.873848	0.015585	-0.078557	-0.719639	0.012662	-0.065885	-0.668236	0.007792	-0.050047	-0.616834	0.097400	-0.365491	-4.574191	0.000000	0.000000	17.373920	-0.525937	-6.369168	-11.977854	-22.765262	75.990640	65.200093	3.197011	-7.677524	6.154843	-32.004343	-11.731695	25.720045	64.178287	12.367414	65.495338	-23.974648
5.660377	-1.686789	-2.556664	99.542881	0.179276	0.495955	0.951733	-2.201325	0.700144	-17.050148	9.575641	0.167126	46.187235	16.350514	0.000000	-0.613666	2.042982	-6.128592	11.619226	0.202794	46.570116	11.972615	0.000000	0.013023	-0.025924	-0.818715	0.024186	-0.034479	-0.869885	0.021396	-0.063032	-0.869885	0.014885	-0.063032	-0.716376	0.012094	-0.052864	-0.665206	0.007442	-0.040156	-0.614036	0.093025	-0.293257	-4.553447	0.000000	0.000000	17.682531	-0.420659	-5.898451	-12.306785	-22.927316	74.513550	65.974413	2.974835	-10.676285	8.776648	-32.147791	-11.665748	25.522441	64.583108	12.153811	64.980139	-23.964321
5.679245	-1.648702	-2.643599	99.400705	0.179383	0.495713	0.951812	-2.110944	0.722934	-16.882419	9.515379	0.166075	46.178962	16.401401	0.000000	-0.535659	2.047956	-6.145430	11.635349	0.203075	46.515938	11.717373	0.000000	0.013954	-0.019531	-0.827762	0.025913	-0.025976	-0.879498	0.022924	-0.047488	-0.879498	0.015948	-0.047488	-0.724292	0.012957	-0.039828	-0.672557	0.007973	-0.030254	-0.620822	0.099669	-0.220939	-4.603767	0.000000	0.000000	17.952651	-0.301230	-5.472075	-12.569946	-23.081298	73.321392	66.581825	2.808358	-12.957603	10.924993	-32.316231	-11.545121	25.269189	64.884050	12.030158	64.602138	-23.961372
